<svg width="150" height="46" viewBox="0 0 150 46" fill="none" xmlns="http://www.w3.org/2000/svg">
<path fill-rule="evenodd" clip-rule="evenodd" d="M13.5729 23.3646C19.1694 23.3646 23.7061 18.8398 23.7061 13.2581C23.7061 7.67647 19.1694 3.15163 13.5729 3.15163C7.97654 3.15163 3.43975 7.67647 3.43975 13.2581C3.43975 18.8398 7.97654 23.3646 13.5729 23.3646ZM13.5729 26.2522C20.7683 26.2522 26.6013 20.4346 26.6013 13.2581C26.6013 6.08171 20.7683 0.264056 13.5729 0.264057C6.37756 0.264057 0.544555 6.08171 0.544555 13.2581C0.544555 20.4346 6.37756 26.2522 13.5729 26.2522ZM102.426 25.9723L88.017 25.9723C87.0385 25.9723 86.4158 25.3414 86.4158 24.3425L86.4158 2.06889C86.4158 1.06999 87.0385 0.439112 88.017 0.439112C88.9955 0.439112 89.6182 1.06999 89.6182 2.06889L89.6182 23.1333L102.426 23.1333C103.333 23.1333 103.956 23.7116 103.956 24.5528C103.956 25.394 103.333 25.9723 102.426 25.9723ZM105.337 2.08941L105.337 15.3785C105.337 22.5481 109.583 26.3931 116.132 26.3931C122.681 26.3931 127.047 22.5905 127.047 15.1555L127.047 2.09486C127.047 1.28317 126.387 0.625172 125.574 0.625172C124.76 0.625172 124.1 1.28317 124.1 2.09486L124.1 15.3785C124.1 20.923 121.044 23.7483 116.241 23.7483C111.22 23.7483 108.273 20.6999 108.273 15.198L108.273 2.08941C108.273 1.28073 107.616 0.625171 106.805 0.625171C105.994 0.625171 105.337 1.28073 105.337 2.08941ZM131.084 23.1838C130.502 22.732 130.458 21.8893 130.938 21.3302C131.458 20.7235 132.383 20.6928 133.015 21.1829C133.919 21.8836 134.921 22.4582 135.995 22.8879C137.531 23.5032 139.18 23.8086 140.842 23.7856C144.378 23.7856 146.649 21.9799 146.649 19.4733L146.649 19.4095C146.649 17.0515 145.35 15.7451 139.87 14.5873C133.878 13.3128 131.138 11.4009 131.138 7.2691L131.138 7.19474C131.138 3.24352 134.751 0.269468 139.706 0.269468C142.597 0.188829 145.426 1.00885 147.788 2.59159C148.41 3.00785 148.501 3.86105 148.043 4.45153C147.557 5.07715 146.649 5.16252 145.986 4.72879C144.116 3.50579 141.905 2.84235 139.63 2.8399C136.203 2.8399 134.085 4.6243 134.085 6.9398L134.085 7.01416C134.085 9.40401 135.384 10.7848 141.158 11.9426C146.932 13.1003 149.65 15.2353 149.65 19.1121L149.65 19.1865C149.65 23.5413 145.928 26.3666 140.743 26.3666C137.227 26.4356 133.812 25.3009 131.084 23.1838ZM30.3208 1.66184C29.7313 1.07385 28.7754 1.07385 28.1859 1.66184C27.5964 2.24984 27.5963 3.20316 28.1859 3.79116L38.2351 13.8139L28.1848 23.8377C27.5953 24.4257 27.5953 25.3791 28.1848 25.9671C28.7744 26.5551 29.7302 26.555 30.3198 25.9671L40.3701 15.9432L50.7545 26.3003C51.344 26.8883 52.2998 26.8883 52.8894 26.3003C53.4789 25.7123 53.4789 24.759 52.8894 24.171L42.505 13.8139L52.8883 3.45793C53.4779 2.86994 53.4779 1.91661 52.8883 1.32862C52.2988 0.740627 51.3429 0.740627 50.7534 1.32862L40.3701 11.6846L30.3208 1.66184ZM72.5356 2.42991C70.864 -0.457668 66.6851 -0.457669 65.0136 2.4299L54.9843 19.7553C53.3128 22.6429 55.4022 26.2524 58.7453 26.2524L78.8038 26.2524C82.1469 26.2524 84.2364 22.6429 82.5648 19.7553L72.5356 2.42991ZM67.5209 3.87369C68.0781 2.91117 69.4711 2.91117 70.0282 3.87369L80.0575 21.1991C80.6147 22.1617 79.9182 23.3648 78.8038 23.3648L58.7453 23.3648C57.631 23.3648 56.9345 22.1617 57.4917 21.1991L67.5209 3.87369Z" fill="white"/>
<path d="M48.4083 45.2639H49.8463V44.2071H48.4083C47.6137 44.2071 47.2163 43.7542 47.2163 42.905V37.1116H49.8652V36.0549H47.2163V33.6394H46.0432V36.0549H44.2079V37.1116H46.0432V42.905C46.0432 44.3958 46.9704 45.2639 48.4083 45.2639Z" fill="white"/>
<path d="M52.7143 45.2639H53.8874V40.1687C53.8874 37.6589 55.7605 36.8474 57.331 37.0361V35.7907C56.2525 35.7907 54.7388 36.2436 53.8874 37.6211V36.0549H52.7143V45.2639Z" fill="white"/>
<path d="M61.9556 45.5281C62.9017 45.5281 64.264 45.1318 65.0208 43.9807V45.2639H66.1939V38.5458C66.1939 36.904 65.0019 35.7907 62.9395 35.7907C61.142 35.7907 59.6473 36.6776 59.2689 38.7534H60.5555C60.8771 37.3003 61.8989 36.904 62.9395 36.904C64.3396 36.904 65.0208 37.64 65.0208 38.5458V39.4139L61.6529 40.3008C59.9311 40.7349 59.0986 41.5086 59.0986 42.9616C59.0986 44.7732 60.442 45.5281 61.9556 45.5281ZM60.3095 42.9239C60.3095 42.0558 60.7636 41.584 61.9178 41.2632L65.0208 40.4329V41.6218C65.0208 43.6976 63.3368 44.4524 62.1259 44.4524C61.2177 44.4524 60.3095 44.0373 60.3095 42.9239Z" fill="white"/>
<path d="M73.5601 45.5281C75.3765 45.5281 77.2118 44.509 77.8173 42.5276H76.5118C76.0198 43.7731 74.8467 44.4147 73.5601 44.4147C71.7059 44.4147 70.1544 43.056 70.1544 40.6594C70.1544 38.2628 71.7059 36.904 73.5601 36.904C74.7711 36.904 75.9252 37.489 76.4172 38.6024H77.7416C77.0983 36.772 75.3198 35.7907 73.5601 35.7907C71.195 35.7907 68.9245 37.5079 68.9245 40.6594C68.9245 43.8108 71.195 45.5281 73.5601 45.5281Z" fill="white"/>
<path d="M80.3933 45.2639H81.5664V32.0542H80.3933V45.2639ZM81.5664 40.4329L85.8236 45.2639H87.3562L83.0423 40.3574L86.921 36.0549H85.4641L81.5664 40.4329Z" fill="white"/>
<path d="M93.4075 45.5281C95.0914 45.5281 96.7943 44.7166 97.5511 43.1315H96.1699C95.6212 43.9995 94.5616 44.4336 93.4075 44.4336C91.4586 44.4336 89.9828 43.2258 89.8503 40.9613H97.816V40.6405C97.816 37.3381 95.5077 35.7907 93.2939 35.7907C90.9288 35.7907 88.6583 37.5079 88.6583 40.6594C88.6583 43.8108 90.8721 45.5281 93.4075 45.5281ZM89.8882 39.98C90.1531 37.9608 91.61 36.8474 93.2939 36.8474C94.8076 36.8474 96.3402 37.8099 96.5672 39.98H89.8882Z" fill="white"/>
<path d="M100.848 45.2639H102.021V40.1687C102.021 37.6589 103.894 36.8474 105.464 37.0361V35.7907C104.386 35.7907 102.872 36.2436 102.021 37.6211V36.0549H100.848V45.2639Z" fill="white"/>
</svg>
