<svg width="144" height="43" viewBox="0 0 144 43" fill="none" xmlns="http://www.w3.org/2000/svg">
<path fill-rule="evenodd" clip-rule="evenodd" d="M13.1006 21.945C18.4686 21.945 22.8202 17.7218 22.8202 12.5123C22.8202 7.3027 18.4686 3.07952 13.1006 3.07952C7.7326 3.07952 3.38099 7.3027 3.38099 12.5123C3.38099 17.7218 7.7326 21.945 13.1006 21.945ZM13.1006 24.6401C20.0023 24.6401 25.5972 19.2103 25.5972 12.5123C25.5972 5.81426 20.0023 0.38445 13.1006 0.38445C6.19889 0.384451 0.603961 5.81426 0.603961 12.5123C0.603962 19.2103 6.19889 24.6401 13.1006 24.6401ZM98.3267 24.3788L84.5061 24.3788C83.5676 24.3788 82.9703 23.79 82.9703 22.8577L82.9703 2.06896C82.9703 1.13666 83.5676 0.547835 84.5061 0.547835C85.4447 0.547835 86.0419 1.13666 86.0419 2.06896L86.0419 21.7291L98.3267 21.7291C99.197 21.7291 99.7943 22.2689 99.7943 23.054C99.7943 23.8391 99.197 24.3788 98.3267 24.3788ZM101.119 2.08811L101.119 14.4913C101.119 21.1828 105.192 24.7715 111.473 24.7715C117.755 24.7715 121.943 21.2225 121.943 14.2831L121.943 2.0932C121.943 1.33563 121.31 0.72149 120.53 0.72149C119.749 0.72149 119.116 1.33563 119.116 2.0932L119.116 14.4913C119.116 19.6661 116.185 22.3031 111.578 22.3031C106.762 22.3031 103.935 19.4579 103.935 14.3228L103.935 2.08811C103.935 1.33335 103.305 0.72149 102.527 0.72149C101.749 0.72149 101.119 1.33335 101.119 2.08811ZM125.815 21.7763C125.257 21.3545 125.215 20.568 125.675 20.0462C126.174 19.4799 127.061 19.4512 127.667 19.9087C128.534 20.5627 129.496 21.099 130.525 21.5C131.999 22.0743 133.581 22.3593 135.175 22.3379C138.567 22.3379 140.745 20.6526 140.745 18.313L140.745 18.2536C140.745 16.0528 139.499 14.8334 134.243 13.7528C128.495 12.5632 125.867 10.7788 125.867 6.92249L125.867 6.85309C125.867 3.16529 129.333 0.3895 134.086 0.3895C136.858 0.314238 139.572 1.07959 141.838 2.55682C142.434 2.94532 142.521 3.74165 142.082 4.29276C141.616 4.87667 140.745 4.95635 140.109 4.55154C138.315 3.41006 136.195 2.79086 134.012 2.78857C130.725 2.78857 128.694 4.45401 128.694 6.61515L128.694 6.68455C128.694 8.91508 129.94 10.2038 135.478 11.2844C141.017 12.365 143.624 14.3576 143.624 17.976L143.624 18.0454C143.624 22.1099 140.054 24.7469 135.08 24.7469C131.707 24.8112 128.432 23.7522 125.815 21.7763ZM29.1649 1.68905C28.5994 1.14026 27.6826 1.14026 27.1171 1.68905C26.5516 2.23785 26.5516 3.12762 27.1171 3.67641L36.7561 13.031L27.1161 22.3866C26.5506 22.9354 26.5506 23.8251 27.1161 24.3739C27.6815 24.9227 28.5984 24.9227 29.1638 24.3739L38.8039 15.0183L48.7645 24.6849C49.33 25.2337 50.2468 25.2337 50.8123 24.6849C51.3778 24.1361 51.3778 23.2464 50.8123 22.6976L40.8517 13.031L50.8112 3.3654C51.3767 2.81661 51.3767 1.92684 50.8112 1.37804C50.2458 0.82925 49.3289 0.82925 48.7634 1.37804L38.8039 11.0436L29.1649 1.68905ZM69.6565 2.40591C68.0532 -0.289159 64.0449 -0.289161 62.4416 2.40591L52.8217 18.5763C51.2184 21.2714 53.2225 24.6402 56.4292 24.6402L75.669 24.6402C78.8756 24.6402 80.8798 21.2714 79.2764 18.5763L69.6565 2.40591ZM64.8466 3.75344C65.381 2.85509 66.7171 2.85509 67.2516 3.75344L76.8715 19.9239C77.4059 20.8222 76.7379 21.9452 75.669 21.9452L56.4292 21.9452C55.3603 21.9452 54.6923 20.8222 55.2267 19.9239L64.8466 3.75344Z" fill="#030C1F"/>
<path d="M46.5141 42.3843H47.8934V41.398H46.5141C45.7519 41.398 45.3708 40.9753 45.3708 40.1827V34.7755H47.9116V33.7892H45.3708V31.5348H44.2456V33.7892H42.4851V34.7755H44.2456V40.1827C44.2456 41.5741 45.1348 42.3843 46.5141 42.3843Z" fill="#808080"/>
<path d="M50.6443 42.3843H51.7695V37.6288C51.7695 35.2863 53.5662 34.5289 55.0726 34.7051V33.5426C54.0381 33.5426 52.5862 33.9653 51.7695 35.2511V33.7892H50.6443V42.3843Z" fill="#808080"/>
<path d="M59.5085 42.6309C60.4159 42.6309 61.7226 42.261 62.4485 41.1866V42.3843H63.5737V36.1141C63.5737 34.5818 62.4304 33.5426 60.4522 33.5426C58.7281 33.5426 57.2943 34.3704 56.9314 36.3078H58.1655C58.474 34.9517 59.454 34.5818 60.4522 34.5818C61.7952 34.5818 62.4485 35.2687 62.4485 36.1141V36.9243L59.2181 37.7521C57.5666 38.1572 56.768 38.8793 56.768 40.2355C56.768 41.9264 58.0566 42.6309 59.5085 42.6309ZM57.9295 40.2003C57.9295 39.3901 58.3651 38.9498 59.4722 38.6504L62.4485 37.8754V38.985C62.4485 40.9224 60.8333 41.6269 59.6718 41.6269C58.8007 41.6269 57.9295 41.2395 57.9295 40.2003Z" fill="#808080"/>
<path d="M70.6393 42.6309C72.3816 42.6309 74.142 41.6798 74.7227 39.8304H73.4705C72.9986 40.9929 71.8734 41.5917 70.6393 41.5917C68.8608 41.5917 67.3726 40.3236 67.3726 38.0868C67.3726 35.8499 68.8608 34.5818 70.6393 34.5818C71.8008 34.5818 72.9079 35.1278 73.3797 36.1669H74.6501C74.0331 34.4585 72.3271 33.5426 70.6393 33.5426C68.3707 33.5426 66.1929 35.1454 66.1929 38.0868C66.1929 41.0281 68.3707 42.6309 70.6393 42.6309Z" fill="#808080"/>
<path d="M77.1936 42.3843H78.3188V30.0553H77.1936V42.3843ZM78.3188 37.8754L82.4022 42.3843H83.8723L79.7344 37.8049L83.4549 33.7892H82.0574L78.3188 37.8754Z" fill="#808080"/>
<path d="M89.6765 42.6309C91.2918 42.6309 92.9251 41.8735 93.6511 40.394H92.3262C91.7999 41.2042 90.7836 41.6093 89.6765 41.6093C87.8072 41.6093 86.3917 40.4821 86.2646 38.3686H93.9051V38.0691C93.9051 34.9869 91.691 33.5426 89.5676 33.5426C87.2991 33.5426 85.1213 35.1454 85.1213 38.0868C85.1213 41.0281 87.2446 42.6309 89.6765 42.6309ZM86.3009 37.4527C86.555 35.5681 87.9524 34.5289 89.5676 34.5289C91.0195 34.5289 92.4896 35.4272 92.7073 37.4527H86.3009Z" fill="#808080"/>
<path d="M96.8132 42.3843H97.9384V37.6288C97.9384 35.2863 99.7351 34.5289 101.241 34.7051V33.5426C100.207 33.5426 98.755 33.9653 97.9384 35.2511V33.7892H96.8132V42.3843Z" fill="#808080"/>
</svg>
