<svg width="183" height="42" viewBox="0 0 183 42" fill="none" xmlns="http://www.w3.org/2000/svg">
<path fill-rule="evenodd" clip-rule="evenodd" d="M12.1342 21.4347C17.3465 21.4347 21.572 17.2362 21.572 12.057C21.572 6.87784 17.3465 2.6793 12.1342 2.6793C6.92191 2.6793 2.69649 6.87785 2.69649 12.057C2.69649 17.2362 6.92191 21.4347 12.1342 21.4347ZM12.1342 24.1141C18.8358 24.1141 24.2685 18.7159 24.2685 12.057C24.2685 5.39808 18.8358 -4.85018e-05 12.1342 -4.82107e-05C5.43268 -4.79197e-05 -8.43301e-07 5.39808 -5.50367e-07 12.057C-2.57433e-07 18.7159 5.43268 24.1141 12.1342 24.1141ZM94.8889 23.8543L81.469 23.8543C80.5577 23.8543 79.9778 23.269 79.9778 22.3421L79.9778 1.67464C79.9778 0.747771 80.5577 0.162382 81.469 0.162382C82.3804 0.162382 82.9603 0.747772 82.9603 1.67464L82.9603 21.2201L94.8889 21.2201C95.7339 21.2201 96.3139 21.7567 96.3139 22.5372C96.3139 23.3177 95.7339 23.8543 94.8889 23.8543ZM97.6 1.69368L97.6 14.0245C97.6 20.677 101.555 24.2448 107.654 24.2448C113.754 24.2448 117.82 20.7164 117.82 13.8175L117.82 1.69873C117.82 0.945576 117.206 0.335025 116.448 0.335025C115.69 0.335025 115.076 0.94558 115.076 1.69873L115.076 14.0245C115.076 19.1691 112.229 21.7907 107.756 21.7907C103.08 21.7907 100.335 18.9622 100.335 13.8569L100.335 1.69368C100.335 0.943313 99.7225 0.335025 98.9673 0.335025C98.2122 0.335025 97.6 0.943315 97.6 1.69368ZM121.58 21.267C121.038 20.8477 120.997 20.0658 121.444 19.547C121.929 18.984 122.79 18.9555 123.379 19.4103C124.22 20.0605 125.154 20.5936 126.154 20.9924C127.585 21.5633 129.121 21.8466 130.668 21.8253C133.962 21.8253 136.077 20.1499 136.077 17.824L136.077 17.7648C136.077 15.5769 134.867 14.3646 129.763 13.2904C124.182 12.1077 121.631 10.3337 121.631 6.49985L121.631 6.43086C121.631 2.76456 124.996 0.00497084 129.611 0.00497064C132.303 -0.0698529 134.938 0.691038 137.138 2.15965C137.717 2.54588 137.802 3.33756 137.375 3.88546C136.923 4.46597 136.077 4.54518 135.459 4.14273C133.718 3.00792 131.659 2.39232 129.54 2.39005C126.348 2.39005 124.375 4.04577 124.375 6.1943L124.375 6.2633C124.375 8.48081 125.585 9.76206 130.963 10.8363C136.341 11.9106 138.872 13.8916 138.872 17.4889L138.872 17.5578C138.872 21.5986 135.406 24.2202 130.577 24.2202C127.302 24.2842 124.121 23.2314 121.58 21.267ZM27.7327 1.29694C27.1836 0.751351 26.2933 0.751351 25.7443 1.29694C25.1952 1.84254 25.1952 2.72711 25.7443 3.27271L35.1038 12.5727L25.7433 21.8737C25.1942 22.4193 25.1942 23.3039 25.7433 23.8495C26.2923 24.3951 27.1826 24.3951 27.7317 23.8495L37.0922 14.5485L46.7639 24.1587C47.313 24.7043 48.2032 24.7043 48.7523 24.1587C49.3014 23.6131 49.3014 22.7285 48.7523 22.1829L39.0806 12.5727L48.7513 2.96351C49.3004 2.41792 49.3004 1.53334 48.7513 0.987749C48.2022 0.442156 47.312 0.442156 46.7629 0.987749L37.0922 10.597L27.7327 1.29694ZM67.0501 2.00962C65.4933 -0.66973 61.6012 -0.66973 60.0444 2.00962L50.7035 18.0857C49.1467 20.765 51.0927 24.1142 54.2063 24.1142L72.8882 24.1142C76.0018 24.1142 77.9479 20.765 76.391 18.0857L67.0501 2.00962ZM62.3796 3.34929C62.8986 2.45617 64.1959 2.45617 64.7149 3.34929L74.0558 19.4254C74.5748 20.3185 73.9261 21.4349 72.8882 21.4349L54.2063 21.4349C53.1684 21.4349 52.5198 20.3185 53.0387 19.4254L62.3796 3.34929Z" fill="white"/>
<path d="M44.5789 41.7549H45.9182V40.7743H44.5789C43.8387 40.7743 43.4687 40.3541 43.4687 39.5661V34.1905H45.9358V33.21H43.4687V30.9687H42.3761V33.21H40.6667V34.1905H42.3761V39.5661C42.3761 40.9494 43.2396 41.7549 44.5789 41.7549Z" fill="white"/>
<path d="M48.5893 41.7549H49.6819V37.0272C49.6819 34.6983 51.4265 33.9454 52.8891 34.1205V32.9648C51.8847 32.9648 50.4749 33.3851 49.6819 34.6633V33.21H48.5893V41.7549Z" fill="white"/>
<path d="M57.1964 42.0001C58.0775 42.0001 59.3463 41.6323 60.0512 40.5642V41.7549H61.1438V35.5213C61.1438 33.9979 60.0336 32.9648 58.1127 32.9648C56.4386 32.9648 55.0465 33.7878 54.694 35.7139H55.8923C56.1919 34.3656 57.1435 33.9979 58.1127 33.9979C59.4168 33.9979 60.0512 34.6808 60.0512 35.5213V36.3268L56.9144 37.1497C55.3108 37.5525 54.5354 38.2704 54.5354 39.6187C54.5354 41.2996 55.7866 42.0001 57.1964 42.0001ZM55.6633 39.5836C55.6633 38.7782 56.0862 38.3404 57.1611 38.0428L60.0512 37.2723V38.3755C60.0512 40.3016 58.4828 41.002 57.355 41.002C56.5091 41.002 55.6633 40.6167 55.6633 39.5836Z" fill="white"/>
<path d="M68.0045 42.0001C69.6962 42.0001 71.4055 41.0545 71.9695 39.2159H70.7535C70.2953 40.3716 69.2028 40.967 68.0045 40.967C66.2775 40.967 64.8325 39.7062 64.8325 37.4824C64.8325 35.2586 66.2775 33.9979 68.0045 33.9979C69.1323 33.9979 70.2072 34.5407 70.6654 35.5738H71.899C71.2998 33.8753 69.6433 32.9648 68.0045 32.9648C65.8017 32.9648 63.687 34.5582 63.687 37.4824C63.687 40.4066 65.8017 42.0001 68.0045 42.0001Z" fill="white"/>
<path d="M74.3687 41.7549H75.4613V29.4978H74.3687V41.7549ZM75.4613 37.2723L79.4263 41.7549H80.8537L76.8358 37.2023L80.4484 33.21H79.0915L75.4613 37.2723Z" fill="white"/>
<path d="M86.4896 42.0001C88.058 42.0001 89.644 41.2471 90.3489 39.7763H89.0625C88.5514 40.5817 87.5646 40.9845 86.4896 40.9845C84.6745 40.9845 83.3 39.8638 83.1766 37.7626H90.5956V37.4649C90.5956 34.4006 88.4457 32.9648 86.3839 32.9648C84.1811 32.9648 82.0664 34.5582 82.0664 37.4824C82.0664 40.4066 84.1283 42.0001 86.4896 42.0001ZM83.2119 36.8521C83.4586 34.9785 84.8155 33.9454 86.3839 33.9454C87.7937 33.9454 89.2211 34.8384 89.4325 36.8521H83.2119Z" fill="white"/>
<path d="M93.4193 41.7549H94.5119V37.0272C94.5119 34.6983 96.2565 33.9454 97.7191 34.1205V32.9648C96.7146 32.9648 95.3049 33.3851 94.5119 34.6633V33.21H93.4193V41.7549Z" fill="white"/>
<rect x="147.667" y="2.25513" width="30" height="13" rx="2" fill="#F4512D"/>
<path d="M151.505 12.2551H150.022L152.282 5.70967H154.065L156.322 12.2551H154.839L153.199 7.20541H153.148L151.505 12.2551ZM151.413 9.68233H154.916V10.7626H151.413V9.68233ZM158.446 5.70967V12.2551H157.084V5.70967H158.446ZM159.536 14.096V7.34604H160.879V8.17061H160.939C160.999 8.03851 161.085 7.90427 161.198 7.76791C161.313 7.62942 161.462 7.51436 161.646 7.42274C161.831 7.32899 162.061 7.28212 162.336 7.28212C162.694 7.28212 163.024 7.37587 163.327 7.56337C163.629 7.74873 163.871 8.02892 164.052 8.40392C164.233 8.77679 164.324 9.24447 164.324 9.80697C164.324 10.3546 164.235 10.8169 164.059 11.194C163.884 11.569 163.645 11.8535 163.343 12.0474C163.042 12.2391 162.706 12.335 162.333 12.335C162.069 12.335 161.844 12.2913 161.658 12.204C161.475 12.1166 161.325 12.0069 161.208 11.8748C161.091 11.7406 161.001 11.6053 160.939 11.4689H160.898V14.096H159.536ZM160.869 9.80058C160.869 10.0925 160.909 10.3471 160.99 10.5644C161.071 10.7818 161.189 10.9511 161.342 11.0726C161.495 11.1919 161.682 11.2516 161.901 11.2516C162.123 11.2516 162.31 11.1909 162.464 11.0694C162.617 10.9458 162.733 10.7754 162.812 10.558C162.893 10.3386 162.934 10.0861 162.934 9.80058C162.934 9.5172 162.894 9.26791 162.815 9.05271C162.737 8.83751 162.62 8.66919 162.467 8.54774C162.314 8.42629 162.125 8.36557 161.901 8.36557C161.68 8.36557 161.492 8.42416 161.339 8.54135C161.188 8.65854 161.071 8.82473 160.99 9.03993C160.909 9.25513 160.869 9.50868 160.869 9.80058ZM166.593 9.41706V12.2551H165.232V5.70967H166.555V8.21216H166.612C166.723 7.92239 166.902 7.69547 167.149 7.5314C167.396 7.36521 167.706 7.28212 168.079 7.28212C168.42 7.28212 168.717 7.35669 168.971 7.50584C169.227 7.65285 169.425 7.86486 169.565 8.14185C169.708 8.4167 169.778 8.74589 169.776 9.12942V12.2551H168.415V9.37231C168.417 9.06976 168.34 8.83432 168.185 8.66599C168.031 8.49767 167.816 8.41351 167.539 8.41351C167.354 8.41351 167.19 8.45293 167.047 8.53176C166.906 8.6106 166.795 8.72565 166.715 8.87693C166.636 9.02608 166.595 9.20612 166.593 9.41706ZM172.248 12.3478C171.934 12.3478 171.655 12.2935 171.41 12.1848C171.165 12.074 170.971 11.911 170.829 11.6958C170.688 11.4785 170.618 11.2079 170.618 10.884C170.618 10.6113 170.668 10.3823 170.768 10.1969C170.868 10.0115 171.004 9.86237 171.177 9.74945C171.35 9.63652 171.546 9.55129 171.765 9.49376C171.987 9.43623 172.219 9.39575 172.462 9.37231C172.747 9.34248 172.977 9.31479 173.152 9.28922C173.327 9.26152 173.454 9.22104 173.532 9.16777C173.611 9.1145 173.651 9.03567 173.651 8.93126V8.91209C173.651 8.70967 173.587 8.55307 173.459 8.44227C173.333 8.33148 173.154 8.27608 172.922 8.27608C172.677 8.27608 172.482 8.33041 172.337 8.43908C172.192 8.54561 172.096 8.67984 172.049 8.84177L170.79 8.7395C170.854 8.44121 170.98 8.18339 171.167 7.96606C171.355 7.7466 171.597 7.57828 171.893 7.46109C172.191 7.34177 172.536 7.28212 172.928 7.28212C173.201 7.28212 173.462 7.31408 173.711 7.378C173.963 7.44192 174.185 7.54099 174.379 7.67523C174.575 7.80946 174.73 7.98204 174.843 8.19298C174.956 8.40179 175.012 8.65214 175.012 8.94405V12.2551H173.721V11.5744H173.683C173.604 11.7278 173.498 11.8631 173.366 11.9803C173.234 12.0953 173.075 12.1859 172.89 12.2519C172.705 12.3159 172.491 12.3478 172.248 12.3478ZM172.638 11.4082C172.838 11.4082 173.015 11.3688 173.168 11.2899C173.321 11.209 173.442 11.1003 173.529 10.9639C173.617 10.8276 173.66 10.6731 173.66 10.5005V9.97956C173.618 10.0073 173.559 10.0328 173.484 10.0563C173.412 10.0776 173.33 10.0978 173.238 10.117C173.147 10.134 173.055 10.15 172.964 10.1649C172.872 10.1777 172.789 10.1894 172.714 10.2001C172.554 10.2235 172.415 10.2608 172.296 10.3119C172.176 10.3631 172.084 10.4323 172.018 10.5197C171.951 10.6049 171.918 10.7114 171.918 10.8393C171.918 11.0247 171.986 11.1663 172.12 11.2644C172.256 11.3602 172.429 11.4082 172.638 11.4082Z" fill="white"/>
</svg>
