<svg width="180" height="41" viewBox="0 0 180 41" fill="none" xmlns="http://www.w3.org/2000/svg">
<path fill-rule="evenodd" clip-rule="evenodd" d="M11.9353 20.9244C17.0622 20.9244 21.2183 16.8258 21.2183 11.7699C21.2183 6.71408 17.0622 2.6155 11.9353 2.6155C6.80844 2.6155 2.65229 6.71408 2.65229 11.7699C2.65229 16.8258 6.80844 20.9244 11.9353 20.9244ZM11.9353 23.5399C18.527 23.5399 23.8706 18.2703 23.8706 11.7699C23.8706 5.26955 18.527 -5.61117e-05 11.9353 -5.58276e-05C5.34362 -5.55435e-05 -8.29476e-07 5.26955 -5.41344e-07 11.7699C-2.53213e-07 18.2703 5.34362 23.5399 11.9353 23.5399ZM93.3333 23.2864L80.1335 23.2864C79.2371 23.2864 78.6667 22.7149 78.6667 21.8101L78.6667 1.63476C78.6667 0.72996 79.2371 0.158511 80.1335 0.158511C81.0299 0.158511 81.6003 0.72996 81.6003 1.63476L81.6003 20.7149L93.3333 20.7149C94.1645 20.7149 94.735 21.2387 94.735 22.0006C94.735 22.7625 94.1645 23.2864 93.3333 23.2864ZM96 1.65334L96 13.6905C96 20.1847 99.8898 23.6675 105.889 23.6675C111.889 23.6675 115.889 20.2232 115.889 13.4885L115.889 1.65828C115.889 0.923056 115.285 0.32704 114.539 0.327041C113.793 0.327041 113.189 0.923058 113.189 1.65828L113.189 13.6905C113.189 18.7127 110.389 21.2719 105.989 21.2719C101.39 21.2719 98.6899 18.5107 98.6899 13.527L98.6899 1.65334C98.6899 0.920846 98.0877 0.327041 97.3449 0.327041C96.6021 0.327041 96 0.920849 96 1.65334ZM119.587 20.7606C119.054 20.3513 119.013 19.588 119.453 19.0816C119.93 18.532 120.777 18.5042 121.356 18.9482C122.184 19.5828 123.103 20.1033 124.086 20.4925C125.493 21.0498 127.004 21.3265 128.526 21.3057C131.766 21.3057 133.846 19.6701 133.846 17.3996L133.846 17.3418C133.846 15.206 132.656 14.0226 127.636 12.9739C122.146 11.8194 119.637 10.0876 119.637 6.34509L119.637 6.27774C119.637 2.69873 122.946 0.00484509 127.486 0.0048468C130.134 -0.0681952 132.726 0.674578 134.89 2.10822C135.459 2.48526 135.543 3.25809 135.123 3.79294C134.678 4.35962 133.846 4.43695 133.239 4.04409C131.526 2.93629 129.5 2.33536 127.416 2.33313C124.276 2.33313 122.336 3.94944 122.336 6.04681L122.336 6.11416C122.336 8.27888 123.526 9.52962 128.816 10.5783C134.106 11.627 136.596 13.5608 136.596 17.0725L136.596 17.1398C136.596 21.0844 133.186 23.6436 128.436 23.6436C125.215 23.706 122.086 22.6782 119.587 20.7606ZM27.278 1.26606C26.738 0.733455 25.8623 0.733455 25.3222 1.26606C24.7821 1.79866 24.7821 2.66218 25.3222 3.19478L34.5283 12.2734L25.3212 21.3529C24.7812 21.8855 24.7812 22.749 25.3212 23.2816C25.8613 23.8142 26.737 23.8142 27.2771 23.2816L36.4841 14.2021L45.9973 23.5835C46.5374 24.1161 47.413 24.1161 47.9531 23.5835C48.4932 23.0509 48.4932 22.1873 47.9531 21.6547L38.4399 12.2734L47.9521 2.89294C48.4922 2.36034 48.4922 1.49682 47.9521 0.964222C47.412 0.431621 46.5364 0.431621 45.9963 0.964222L36.4841 10.3446L27.278 1.26606ZM65.9509 1.96176C64.4196 -0.65379 60.5914 -0.653792 59.0601 1.96176L49.8723 17.6551C48.341 20.2706 50.2551 23.5401 53.3177 23.5401L71.6933 23.5401C74.7559 23.5401 76.67 20.2706 75.1387 17.6551L65.9509 1.96176ZM61.357 3.26954C61.8675 2.39769 63.1435 2.39769 63.654 3.26954L72.8418 18.9629C73.3522 19.8347 72.7142 20.9245 71.6933 20.9245L53.3177 20.9245C52.2968 20.9245 51.6588 19.8347 52.1692 18.9629L61.357 3.26954Z" fill="#030C1F"/>
<path d="M43.848 40.7607H45.1653V39.8035H43.848C43.12 39.8035 42.756 39.3932 42.756 38.624V33.3764H45.1827V32.4192H42.756V30.2312H41.6813V32.4192H40V33.3764H41.6813V38.624C41.6813 39.9744 42.5307 40.7607 43.848 40.7607Z" fill="#808080"/>
<path d="M47.7927 40.7607H48.8674V36.1455C48.8674 33.8721 50.5834 33.1371 52.022 33.308V32.1799C51.034 32.1799 49.6474 32.5901 48.8674 33.8379V32.4192H47.7927V40.7607Z" fill="#808080"/>
<path d="M56.2587 41C57.1253 41 58.3733 40.641 59.0667 39.5983V40.7607H60.1413V34.6755C60.1413 33.1884 59.0493 32.1799 57.16 32.1799C55.5133 32.1799 54.144 32.9833 53.7973 34.8635H54.976C55.2707 33.5473 56.2067 33.1884 57.16 33.1884C58.4427 33.1884 59.0667 33.855 59.0667 34.6755V35.4618L55.9813 36.2652C54.404 36.6583 53.6413 37.3591 53.6413 38.6753C53.6413 40.3163 54.872 41 56.2587 41ZM54.7507 38.6411C54.7507 37.8548 55.1667 37.4275 56.224 37.1369L59.0667 36.3848V37.4617C59.0667 39.3419 57.524 40.0257 56.4147 40.0257C55.5827 40.0257 54.7507 39.6496 54.7507 38.6411Z" fill="#808080"/>
<path d="M66.8896 41C68.5536 41 70.2349 40.077 70.7896 38.2822H69.5936C69.1429 39.4103 68.0682 39.9915 66.8896 39.9915C65.1909 39.9915 63.7696 38.7608 63.7696 36.5899C63.7696 34.4191 65.1909 33.1884 66.8896 33.1884C67.9989 33.1884 69.0562 33.7183 69.5069 34.7268H70.7202C70.1309 33.0687 68.5016 32.1799 66.8896 32.1799C64.7229 32.1799 62.6429 33.7354 62.6429 36.5899C62.6429 39.4445 64.7229 41 66.8896 41Z" fill="#808080"/>
<path d="M73.1495 40.7607H74.2241V28.7954H73.1495V40.7607ZM74.2241 36.3848L78.1241 40.7607H79.5281L75.5761 36.3164L79.1295 32.4192H77.7948L74.2241 36.3848Z" fill="#808080"/>
<path d="M85.0717 41C86.6144 41 88.1744 40.265 88.8677 38.8291H87.6024C87.0997 39.6154 86.129 40.0086 85.0717 40.0086C83.2864 40.0086 81.9344 38.9146 81.813 36.8634H89.1104V36.5728C89.1104 33.5815 86.9957 32.1799 84.9677 32.1799C82.801 32.1799 80.721 33.7354 80.721 36.5899C80.721 39.4445 82.749 41 85.0717 41ZM81.8477 35.9746C82.0903 34.1456 83.425 33.1371 84.9677 33.1371C86.3544 33.1371 87.7584 34.0088 87.9664 35.9746H81.8477Z" fill="#808080"/>
<path d="M91.8877 40.7607H92.9624V36.1455C92.9624 33.8721 94.6784 33.1371 96.1171 33.308V32.1799C95.1291 32.1799 93.7424 32.5901 92.9624 33.8379V32.4192H91.8877V40.7607Z" fill="#808080"/>
<rect x="145" y="2.04663" width="30" height="13" rx="2" fill="#F4512D"/>
<path d="M148.839 12.0466H147.356L149.615 5.50118H151.399L153.655 12.0466H152.172L150.533 6.99691H150.481L148.839 12.0466ZM148.746 9.47383H152.249V10.5541H148.746V9.47383ZM155.779 5.50118V12.0466H154.417V5.50118H155.779ZM156.869 13.8875V7.13754H158.212V7.96211H158.273C158.332 7.83001 158.419 7.69578 158.531 7.55941C158.646 7.42092 158.796 7.30586 158.979 7.21424C159.164 7.12049 159.394 7.07362 159.669 7.07362C160.027 7.07362 160.357 7.16737 160.66 7.35487C160.963 7.54024 161.204 7.82042 161.385 8.19542C161.567 8.56829 161.657 9.03598 161.657 9.59848C161.657 10.1461 161.569 10.6084 161.392 10.9856C161.217 11.3606 160.979 11.645 160.676 11.8389C160.376 12.0307 160.039 12.1265 159.666 12.1265C159.402 12.1265 159.177 12.0829 158.992 11.9955C158.808 11.9081 158.658 11.7984 158.541 11.6663C158.424 11.5321 158.334 11.3968 158.273 11.2604H158.231V13.8875H156.869ZM158.202 9.59209C158.202 9.88399 158.243 10.1386 158.324 10.3559C158.405 10.5733 158.522 10.7427 158.675 10.8641C158.829 10.9834 159.015 11.0431 159.235 11.0431C159.456 11.0431 159.644 10.9824 159.797 10.8609C159.95 10.7373 160.067 10.5669 160.145 10.3495C160.226 10.1301 160.267 9.8776 160.267 9.59209C160.267 9.3087 160.227 9.05941 160.149 8.84422C160.07 8.62902 159.954 8.46069 159.8 8.33924C159.647 8.2178 159.458 8.15707 159.235 8.15707C159.013 8.15707 158.825 8.21566 158.672 8.33285C158.521 8.45004 158.405 8.61623 158.324 8.83143C158.243 9.04663 158.202 9.30018 158.202 9.59209ZM163.926 9.20856V12.0466H162.565V5.50118H163.888V8.00366H163.945C164.056 7.71389 164.235 7.48697 164.482 7.32291C164.73 7.15672 165.04 7.07362 165.412 7.07362C165.753 7.07362 166.051 7.14819 166.304 7.29734C166.56 7.44436 166.758 7.65636 166.899 7.93335C167.041 8.20821 167.112 8.5374 167.11 8.92092V12.0466H165.748V9.16382C165.75 8.86126 165.673 8.62582 165.518 8.4575C165.365 8.28917 165.149 8.20501 164.872 8.20501C164.687 8.20501 164.523 8.24443 164.38 8.32326C164.24 8.4021 164.129 8.51716 164.048 8.66843C163.969 8.81758 163.928 8.99763 163.926 9.20856ZM169.581 12.1393C169.268 12.1393 168.989 12.085 168.744 11.9763C168.498 11.8655 168.305 11.7025 168.162 11.4873C168.021 11.27 167.951 10.9994 167.951 10.6755C167.951 10.4028 168.001 10.1738 168.101 9.98839C168.201 9.80302 168.338 9.65388 168.51 9.54095C168.683 9.42802 168.879 9.3428 169.098 9.28527C169.32 9.22774 169.552 9.18726 169.795 9.16382C170.081 9.13399 170.311 9.10629 170.485 9.08072C170.66 9.05302 170.787 9.01254 170.866 8.95927C170.945 8.90601 170.984 8.82717 170.984 8.72277V8.70359C170.984 8.50118 170.92 8.34457 170.792 8.23378C170.666 8.12298 170.487 8.06758 170.255 8.06758C170.01 8.06758 169.815 8.12191 169.67 8.23058C169.525 8.33711 169.43 8.47135 169.383 8.63328L168.123 8.53101C168.187 8.23271 168.313 7.9749 168.501 7.75757C168.688 7.53811 168.93 7.36978 169.226 7.2526C169.524 7.13328 169.87 7.07362 170.262 7.07362C170.534 7.07362 170.795 7.10558 171.045 7.1695C171.296 7.23342 171.519 7.3325 171.713 7.46673C171.909 7.60096 172.063 7.77355 172.176 7.98449C172.289 8.19329 172.345 8.44365 172.345 8.73555V12.0466H171.054V11.3659H171.016C170.937 11.5193 170.832 11.6546 170.699 11.7718C170.567 11.8868 170.409 11.9774 170.223 12.0434C170.038 12.1074 169.824 12.1393 169.581 12.1393ZM169.971 11.1997C170.171 11.1997 170.348 11.1603 170.501 11.0814C170.655 11.0005 170.775 10.8918 170.862 10.7554C170.95 10.6191 170.994 10.4646 170.994 10.292V9.77106C170.951 9.79876 170.892 9.82433 170.818 9.84777C170.745 9.86907 170.663 9.88932 170.572 9.90849C170.48 9.92554 170.388 9.94152 170.297 9.95643C170.205 9.96922 170.122 9.98093 170.047 9.99159C169.888 10.015 169.748 10.0523 169.629 10.1034C169.509 10.1546 169.417 10.2238 169.351 10.3112C169.285 10.3964 169.252 10.503 169.252 10.6308C169.252 10.8162 169.319 10.9579 169.453 11.0559C169.589 11.1517 169.762 11.1997 169.971 11.1997Z" fill="white"/>
</svg>
