<svg width="43" height="38" viewBox="0 0 43 38" fill="none" xmlns="http://www.w3.org/2000/svg">
<path d="M40.9524 6.33333H26.619C23.3607 6.33333 20.2358 7.66785 17.9317 10.0433C15.6277 12.4188 14.3333 15.6406 14.3333 19C14.3333 22.3594 15.6277 25.5812 17.9317 27.9567C20.2358 30.3321 23.3607 31.6667 26.619 31.6667H40.9524V35.8889C40.9524 36.4488 40.7367 36.9858 40.3526 37.3817C39.9686 37.7776 39.4478 38 38.9048 38H2.04762C1.50456 38 0.983737 37.7776 0.599734 37.3817C0.215731 36.9858 0 36.4488 0 35.8889V2.11111C0 1.55121 0.215731 1.01424 0.599734 0.61833C0.983737 0.22242 1.50456 0 2.04762 0H38.9048C39.4478 0 39.9686 0.22242 40.3526 0.61833C40.7367 1.01424 40.9524 1.55121 40.9524 2.11111V6.33333ZM26.619 10.5556H43V27.4444H26.619C24.4468 27.4444 22.3635 26.5548 20.8275 24.9711C19.2915 23.3875 18.4286 21.2396 18.4286 19C18.4286 16.7604 19.2915 14.6125 20.8275 13.0289C22.3635 11.4452 24.4468 10.5556 26.619 10.5556ZM26.619 16.8889V21.1111H32.7619V16.8889H26.619Z" fill="white"/>
</svg>
